<?xml version="1.0" encoding="UTF-8" standalone="no"?>
<!-- Created with Inkscape (http://www.inkscape.org/) -->

<svg
   version="1.1"
   id="svg757"
   width="747.03998"
   height="725.33331"
   viewBox="0 0 747.03998 725.33331"
   sodipodi:docname="cat-head-2pdv.svg"
   inkscape:version="1.2 (dc2aedaf03, 2022-05-15)"
   xmlns:inkscape="http://www.inkscape.org/namespaces/inkscape"
   xmlns:sodipodi="http://sodipodi.sourceforge.net/DTD/sodipodi-0.dtd"
   xmlns="http://www.w3.org/2000/svg"
   xmlns:svg="http://www.w3.org/2000/svg">
  <defs
     id="defs761">
    <clipPath
       clipPathUnits="userSpaceOnUse"
       id="clipPath773">
      <path
         d="m 468.658,522.882 c -9.243,-0.865 -25.725,-19.484 -51.85,-49.791 v 0 C 397.455,450.643 375.522,425.199 365.28,421.145 v 0 c -1.621,-0.646 -5.295,1.205 -8.532,2.838 v 0 c -4.578,2.31 -9.768,4.926 -15.014,4.129 v 0 c -2.974,-0.454 -6.291,-1.773 -9.803,-3.172 v 0 c -6.934,-2.759 -14.792,-5.887 -20.797,-2.649 v 0 c -31.945,17.227 -52.281,1.62 -53.179,0.908 v 0 c -2.562,-2.097 -10.733,-7.347 -14.549,-4.068 v 0 c -7.3,6.272 -20.53,5.422 -34.086,-2.065 v 0 c -12.345,7.198 -43.663,36.352 -69.05,59.984 v 0 c -19.539,18.189 -34.972,32.557 -40.513,36.004 v 0 c -4.803,2.986 -10.437,2.544 -15.075,-1.188 v 0 c -11.28,-9.075 -17.551,-39.128 1.899,-93.959 v 0 c 10.284,-28.997 15.639,-54.745 19.183,-71.783 v 0 c 1.867,-8.979 3.016,-14.363 4.148,-17.649 v 0 C 99.676,314.861 93.324,303.365 93.158,295.379 v 0 c -0.333,-15.937 1.91,-97.546 78.551,-141.829 v 0 c -0.374,-1.17 -0.693,-2.366 -0.921,-3.599 v 0 c -0.415,-1.936 -0.522,-3.959 -0.474,-5.981 v 0 c 0.072,-2.03 0.47,-4.049 1.038,-6.007 v 0 c 1.253,-3.863 3.293,-7.342 5.712,-10.423 v 0 c 2.441,-3.071 5.248,-5.789 8.265,-8.209 v 0 c 6.049,-4.831 12.927,-8.506 20.198,-11.107 v 0 c 5.129,-1.841 10.489,-3.078 15.948,-3.712 v 0 c 4.386,-4.665 23.809,-24.968 36.112,-32.157 v 0 c 7.713,-4.505 18.211,-6.517 28.238,-6.058 v 0 c 8.427,0.385 16.524,2.519 22.348,6.385 v 0 c 12.634,8.39 34.229,29.459 35.142,30.352 v 0 c 0,0 5.573,2.79 8.237,3.678 v 0 c 7.561,2.51 14.71,6.219 21.07,10.935 v 0 c 6.355,4.723 11.948,10.417 16.462,16.878 v 0 c 2.252,3.235 4.247,6.655 5.859,10.29 v 0 c 1.579,3.628 2.889,7.422 3.22,11.664 v 0 c 33.912,14.279 59.488,43.946 74,85.894 v 0 c 11.002,31.799 11.825,59.029 11.854,60.172 v 0 l 0.03,1.133 -0.634,0.939 c -0.14,0.207 -6.443,8.971 -16.831,22.328 v 0 c 3.27,3.61 3.219,9.434 3.139,18.013 v 0 c -0.123,13.396 -0.33,35.815 9.613,73.858 v 0 c 11.924,45.633 12.139,85.471 0.533,99.131 v 0 c -2.788,3.281 -6.208,4.991 -10.003,4.992 v 0 c -0.398,0 -0.8,-0.019 -1.206,-0.057"
         id="path771" />
    </clipPath>
    <clipPath
       clipPathUnits="userSpaceOnUse"
       id="clipPath781">
      <path
         d="M -32768,32767 H 32767 V -32768 H -32768 Z"
         id="path779" />
    </clipPath>
    <radialGradient
       fx="0"
       fy="0"
       cx="0"
       cy="0"
       r="1"
       gradientUnits="userSpaceOnUse"
       gradientTransform="matrix(234.52661,0,0,-234.52661,283.59741,304.02121)"
       spreadMethod="pad"
       id="radialGradient789">
      <stop
         style="stop-opacity:0;stop-color:#ffffff"
         offset="0"
         id="stop783" />
      <stop
         style="stop-opacity:0;stop-color:#ffffff"
         offset="0.5184668"
         id="stop785" />
      <stop
         style="stop-opacity:0.95001144;stop-color:#ffffff"
         offset="1"
         id="stop787" />
    </radialGradient>
    <mask
       maskUnits="userSpaceOnUse"
       x="0"
       y="0"
       width="1"
       height="1"
       id="mask791">
      <g
         id="g801">
        <g
           clip-path="url(#clipPath781)"
           id="g799">
          <g
             id="g797">
            <g
               id="g795">
              <path
                 d="M -32768,32767 H 32767 V -32768 H -32768 Z"
                 style="fill:url(#radialGradient789);stroke:none"
                 id="path793" />
            </g>
          </g>
        </g>
      </g>
    </mask>
    <radialGradient
       fx="0"
       fy="0"
       cx="0"
       cy="0"
       r="1"
       gradientUnits="userSpaceOnUse"
       gradientTransform="matrix(234.52661,0,0,-234.52661,283.59741,304.02121)"
       spreadMethod="pad"
       id="radialGradient813">
      <stop
         style="stop-opacity:1;stop-color:#130c0e"
         offset="0"
         id="stop807" />
      <stop
         style="stop-opacity:1;stop-color:#130c0e"
         offset="0.5184668"
         id="stop809" />
      <stop
         style="stop-opacity:1;stop-color:#130c0e"
         offset="1"
         id="stop811" />
    </radialGradient>
    <clipPath
       clipPathUnits="userSpaceOnUse"
       id="clipPath823">
      <path
         d="M 0,544 H 560.28 V 0 H 0 Z"
         id="path821" />
    </clipPath>
  </defs>
  <sodipodi:namedview
     id="namedview759"
     pagecolor="#ffffff"
     bordercolor="#000000"
     borderopacity="0.25"
     inkscape:showpageshadow="2"
     inkscape:pageopacity="0.0"
     inkscape:pagecheckerboard="0"
     inkscape:deskcolor="#d1d1d1"
     showgrid="false"
     inkscape:zoom="1.1539522"
     inkscape:cx="373.93229"
     inkscape:cy="363.09995"
     inkscape:window-width="1920"
     inkscape:window-height="1017"
     inkscape:window-x="-8"
     inkscape:window-y="-8"
     inkscape:window-maximized="1"
     inkscape:current-layer="g765">
    <inkscape:page
       x="0"
       y="0"
       id="page763"
       width="747.03998"
       height="725.33331" />
  </sodipodi:namedview>
  <g
     id="g765"
     inkscape:groupmode="layer"
     inkscape:label="Page 1"
     transform="matrix(1.3333333,0,0,-1.3333333,0,725.33333)">
    <g
       id="g767">
      <g
         id="g769"
         clip-path="url(#clipPath773)">
        <g
           id="g775">
          <g
             id="g777" />
          <g
             id="g803"
             mask="url(#mask791)">
            <g
               id="g805">
              <path
                 d="m 468.658,522.882 c -9.243,-0.865 -25.725,-19.484 -51.85,-49.791 v 0 C 397.455,450.643 375.522,425.199 365.28,421.145 v 0 c -1.621,-0.646 -5.295,1.205 -8.532,2.838 v 0 c -4.578,2.31 -9.768,4.926 -15.014,4.129 v 0 c -2.974,-0.454 -6.291,-1.773 -9.803,-3.172 v 0 c -6.934,-2.759 -14.792,-5.887 -20.797,-2.649 v 0 c -31.945,17.227 -52.281,1.62 -53.179,0.908 v 0 c -2.562,-2.097 -10.733,-7.347 -14.549,-4.068 v 0 c -7.3,6.272 -20.53,5.422 -34.086,-2.065 v 0 c -12.345,7.198 -43.663,36.352 -69.05,59.984 v 0 c -19.539,18.189 -34.972,32.557 -40.513,36.004 v 0 c -4.803,2.986 -10.437,2.544 -15.075,-1.188 v 0 c -11.28,-9.075 -17.551,-39.128 1.899,-93.959 v 0 c 10.284,-28.997 15.639,-54.745 19.183,-71.783 v 0 c 1.867,-8.979 3.016,-14.363 4.148,-17.649 v 0 C 99.676,314.861 93.324,303.365 93.158,295.379 v 0 c -0.333,-15.937 1.91,-97.546 78.551,-141.829 v 0 c -0.374,-1.17 -0.693,-2.366 -0.921,-3.599 v 0 c -0.415,-1.936 -0.522,-3.959 -0.474,-5.981 v 0 c 0.072,-2.03 0.47,-4.049 1.038,-6.007 v 0 c 1.253,-3.863 3.293,-7.342 5.712,-10.423 v 0 c 2.441,-3.071 5.248,-5.789 8.265,-8.209 v 0 c 6.049,-4.831 12.927,-8.506 20.198,-11.107 v 0 c 5.129,-1.841 10.489,-3.078 15.948,-3.712 v 0 c 4.386,-4.665 23.809,-24.968 36.112,-32.157 v 0 c 7.713,-4.505 18.211,-6.517 28.238,-6.058 v 0 c 8.427,0.385 16.524,2.519 22.348,6.385 v 0 c 12.634,8.39 34.229,29.459 35.142,30.352 v 0 c 0,0 5.573,2.79 8.237,3.678 v 0 c 7.561,2.51 14.71,6.219 21.07,10.935 v 0 c 6.355,4.723 11.948,10.417 16.462,16.878 v 0 c 2.252,3.235 4.247,6.655 5.859,10.29 v 0 c 1.579,3.628 2.889,7.422 3.22,11.664 v 0 c 33.912,14.279 59.488,43.946 74,85.894 v 0 c 11.002,31.799 11.825,59.029 11.854,60.172 v 0 l 0.03,1.133 -0.634,0.939 c -0.14,0.207 -6.443,8.971 -16.831,22.328 v 0 c 3.27,3.61 3.219,9.434 3.139,18.013 v 0 c -0.123,13.396 -0.33,35.815 9.613,73.858 v 0 c 11.924,45.633 12.139,85.471 0.533,99.131 v 0 c -2.788,3.281 -6.208,4.991 -10.003,4.992 v 0 c -0.398,0 -0.8,-0.019 -1.206,-0.057"
                 style="fill:url(#radialGradient813);stroke:none"
                 id="path815" />
            </g>
          </g>
        </g>
      </g>
    </g>
    <g
       id="g817">
      <g
         id="g819"
         clip-path="url(#clipPath823)">
        <g
           id="g825"
           transform="translate(363.9766,424.4351)">
          <path
             d="M 0,0 C -0.002,-0.001 -0.005,-0.002 -0.007,-0.003 -0.005,-0.002 -0.002,-0.001 0,0 m -189.242,-285.433 c 1.027,-3.143 2.747,-6.264 5.113,-9.278 2.121,-2.667 4.714,-5.242 7.695,-7.633 5.531,-4.417 11.985,-7.963 19.176,-10.534 4.827,-1.734 9.928,-2.921 15.165,-3.532 l 1.283,-0.149 0.885,-0.941 c 3.797,-4.037 23.347,-24.53 35.321,-31.524 6.842,-3.998 16.433,-6.035 26.29,-5.579 8.186,0.374 15.485,2.434 20.553,5.798 12.412,8.243 34.403,29.717 34.624,29.933 l 0.396,0.387 0.496,0.248 c 0.593,0.297 5.879,2.929 8.7,3.87 7.246,2.407 14.002,5.911 20.083,10.421 6.135,4.56 11.408,9.965 15.67,16.063 2.237,3.215 4.097,6.479 5.524,9.698 1.797,4.13 2.675,7.279 2.927,10.505 l 0.167,2.149 1.987,0.836 c 32.96,13.878 57.868,42.852 72.03,83.789 10.833,31.312 11.632,57.986 11.66,59.107 v 0.001 c -0.62,0.882 -7.043,9.731 -16.69,22.135 l -1.825,2.345 1.995,2.203 c 2.344,2.588 2.293,8.048 2.223,15.605 -0.124,13.587 -0.331,36.3 9.727,74.785 11.464,43.871 11.983,83.326 1.261,95.946 -2.333,2.746 -5.092,3.992 -8.184,3.703 C 96.719,94.148 76.702,70.929 55.511,46.346 34.935,22.477 13.658,-2.206 2.605,-6.58 c -2.884,-1.149 -6.242,0.353 -11.427,2.969 -4.105,2.07 -8.757,4.416 -12.89,3.79 -2.572,-0.392 -5.707,-1.64 -9.025,-2.961 -7.273,-2.895 -16.324,-6.499 -23.785,-2.476 -29.94,16.146 -48.523,1.865 -49.3,1.25 -0.455,-0.373 -12.208,-9.861 -19.055,-3.98 -6.081,5.226 -17.884,4.253 -30.068,-2.478 l -1.759,-0.971 -1.734,1.012 c -12.685,7.395 -44.279,36.806 -69.666,60.438 -18.644,17.356 -34.733,32.335 -39.985,35.602 -3.519,2.188 -7.524,1.845 -10.988,-0.941 -8.355,-6.722 -17.122,-33.247 3.016,-90.019 10.368,-29.232 15.75,-55.117 19.312,-72.246 1.796,-8.634 2.951,-14.085 4.029,-17.218 l 0.612,-1.776 -1.129,-1.502 c -10.508,-13.976 -15.906,-24.42 -16.044,-31.043 -0.324,-15.564 1.853,-95.398 76.783,-138.692 l 2.47,-1.427 -0.869,-2.715 c -0.36,-1.124 -0.626,-2.159 -0.811,-3.164 l -0.021,-0.099 c -0.315,-1.466 -0.444,-3.152 -0.396,-5.152 0.054,-1.513 0.344,-3.18 0.883,-5.054 m 108.259,-76.309 c -10.141,0 -19.914,2.357 -27.191,6.607 -11.897,6.95 -29.615,25.093 -36.028,31.857 -5.321,0.711 -10.511,1.966 -15.444,3.737 -7.924,2.834 -15.061,6.762 -21.209,11.672 -3.398,2.725 -6.366,5.675 -8.828,8.773 -2.907,3.703 -5.025,7.577 -6.308,11.532 l -0.032,0.107 c -0.714,2.462 -1.099,4.707 -1.176,6.866 -0.062,2.584 0.116,4.795 0.541,6.799 0.076,0.409 0.162,0.819 0.258,1.233 -76.065,45.581 -78.292,127.479 -77.957,143.577 0.167,7.988 5.526,19.018 16.374,33.687 -1.036,3.562 -2.132,8.749 -3.694,16.263 -3.523,16.941 -8.846,42.543 -19.054,71.321 -20.046,56.515 -13.548,87.628 -0.782,97.899 5.774,4.645 13.116,5.196 19.161,1.436 5.834,-3.629 20.609,-17.383 41.057,-36.419 24.064,-22.401 53.745,-50.031 66.77,-58.496 14.371,7.358 28.133,7.654 36.26,0.67 1.132,-0.971 6.46,1.224 10.002,4.122 0.969,0.769 23.098,17.806 57.101,-0.531 4.551,-2.455 11.595,0.349 17.808,2.823 3.704,1.475 7.204,2.868 10.578,3.382 6.371,0.966 12.342,-2.047 17.141,-4.468 1.682,-0.848 4.735,-2.388 5.958,-2.573 9.629,4.2 31.896,30.031 49.828,50.833 28.301,32.83 43.565,50.008 54.201,51.003 5.457,0.503 10.376,-1.625 14.235,-6.167 12.512,-14.726 12.587,-54.888 0.193,-102.317 -9.82,-37.574 -9.618,-59.697 -9.498,-72.916 0.071,-7.645 0.126,-13.517 -2.287,-17.946 9.222,-11.918 15.081,-20.03 15.372,-20.46 l 1.271,-1.88 -0.061,-2.269 c -0.029,-1.16 -0.859,-28.898 -12.047,-61.234 -14.565,-42.104 -40.148,-72.199 -74.063,-87.175 -0.631,-4.207 -2.039,-7.84 -3.255,-10.637 -1.619,-3.651 -3.701,-7.311 -6.199,-10.9 -4.703,-6.729 -10.507,-12.681 -17.257,-17.697 -6.689,-4.959 -14.111,-8.812 -22.066,-11.454 -1.798,-0.599 -5.497,-2.362 -7.281,-3.241 -3.179,-3.091 -23.094,-22.302 -35.256,-30.378 -6.121,-4.063 -14.695,-6.54 -24.142,-6.971 -1,-0.046 -1.998,-0.07 -2.994,-0.07"
             style="fill:#000000;fill-opacity:1;fill-rule:nonzero;stroke:none"
             id="path827" />
        </g>
        <g
           id="g829"
           transform="translate(363.1007,303.2982)">
          <path
             d="m 0,0 c 13.991,0.64 25.851,-10.182 26.491,-24.173 0.641,-13.99 -10.182,-25.85 -24.172,-26.491 -13.991,-0.64 -25.851,10.182 -26.492,24.173 C -24.813,-12.501 -13.99,-0.64 0,0"
             style="fill:#f7941d;fill-opacity:1;fill-rule:nonzero;stroke:none"
             id="path831" />
        </g>
        <g
           id="g833"
           transform="translate(311.6624,185.0201)">
          <path
             d="m 0,0 c 0.231,0.405 0.426,0.795 0.546,1.151 -1.328,1.096 -6.735,2.402 -10.386,3.285 -4.602,1.112 -9.818,2.372 -13.737,4.194 -3.162,1.471 -6.163,0.377 -10.314,-1.135 -5.79,-2.111 -12.992,-4.734 -23.391,-0.783 -2.41,0.908 -9.967,-4.13 -16.105,-9.774 0.321,-0.619 0.62,-1.252 0.913,-1.875 1.957,-4.147 2.6,-4.602 3.958,-4.121 1.048,0.376 2.265,0.996 3.442,1.594 2.249,1.145 4.552,2.318 6.729,2.418 0.901,0.041 1.78,-0.102 2.625,-0.506 1.662,-0.794 2.766,-2.438 3.28,-4.882 0.909,-4.322 -1.47,-7.533 -3.207,-9.877 -2.25,-3.036 -2.361,-3.603 -0.986,-5.05 2.09,-2.199 5.32,-6.178 8.739,-10.392 2.6,-3.202 6.033,-7.431 8.608,-10.341 l -0.919,33.418 5.292,-34.276 c 4.413,5.239 12.253,17.266 12.317,21.549 0.029,2.025 -1.69,4.948 -3.207,7.526 -2.085,3.546 -3.886,6.609 -2.694,9.321 0.429,0.976 1.441,2.247 3.824,2.758 5.235,1.124 9.068,-0.764 11.869,-2.137 1.068,-0.524 2.281,-1.119 2.836,-1.093 1.846,0.198 7.76,5.282 9.896,8.899 l -0.018,0.011 z"
             style="fill:#ef4136;fill-opacity:1;fill-rule:nonzero;stroke:none"
             id="path835" />
        </g>
        <g
           id="g837"
           transform="translate(192.3973,259.2372)">
          <path
             d="M 0,0 C 11.222,0.514 19.902,10.027 19.389,21.248 18.988,29.996 13.109,37.177 5.226,39.685 16.325,37.406 24.908,27.867 25.449,16.031 26.09,2.04 15.267,-9.82 1.277,-10.46 c -13.991,-0.641 -25.851,10.182 -26.491,24.172 -0.425,9.265 4.195,17.573 11.416,22.33 -4.796,-3.932 -7.755,-9.982 -7.45,-16.653 C -20.735,8.167 -11.221,-0.514 0,0"
             style="fill:#f7941d;fill-opacity:1;fill-rule:nonzero;stroke:none"
             id="path839" />
        </g>
        <g
           id="g841"
           transform="translate(462.6458,344.8936)">
          <path
             d="m 0,0 c 0.06,-6.511 0.007,-10.06 -0.713,-12.015 -10.215,12.943 -23.423,29.065 -38.182,45.608 -19.846,44.912 36.464,129.444 39.56,134.022 2.534,1.99 4.599,3.196 6.006,3.328 1.217,0.111 3.073,-0.018 5.158,-2.472 C 20.285,158.517 22.318,123.459 9.84,75.712 -0.34,36.757 -0.128,13.747 0,0 m -271.732,-61.609 c -0.238,5.205 3.789,9.619 8.995,9.857 5.206,0.238 9.619,-3.789 9.857,-8.994 0.238,-5.206 -3.789,-9.619 -8.994,-9.858 -5.206,-0.238 -9.619,3.789 -9.858,8.995 m 1.484,-24.047 c 11.221,0.513 19.902,10.026 19.388,21.248 -0.4,8.748 -6.279,15.928 -14.163,18.436 11.099,-2.278 19.682,-11.817 20.224,-23.653 0.64,-13.991 -10.182,-25.851 -24.173,-26.492 -13.99,-0.64 -25.851,10.183 -26.491,24.173 -0.424,9.265 4.196,17.573 11.417,22.329 -4.796,-3.931 -7.756,-9.981 -7.451,-16.653 0.514,-11.221 10.027,-19.902 21.249,-19.388 m 30.228,-67.739 c -0.004,-0.007 -0.004,-0.011 -0.008,-0.018 -0.019,-0.031 -0.082,-0.097 -0.074,-0.086 l 0.024,0.03 0.048,0.061 z m 13.773,-16.301 c -0.061,0.079 -0.117,0.162 -0.154,0.241 l 0.01,0.006 c 0.047,-0.083 0.095,-0.165 0.144,-0.247 m 126.702,128.101 c 13.99,0.64 25.851,-10.182 26.491,-24.173 0.641,-13.99 -10.182,-25.851 -24.172,-26.491 -13.991,-0.64 -25.851,10.182 -26.492,24.172 -0.64,13.991 10.182,25.851 24.173,26.492 m -16.022,6.657 c -25.464,-12.495 -34.595,-33.97 -35.909,-54.712 -0.651,2.995 -1.205,6.006 -1.619,9.036 -1.178,7.981 -1.619,16.045 -1.27,24.032 0.207,3.994 0.668,7.954 1.284,11.877 0.713,3.905 1.647,7.756 2.908,11.49 1.34,3.696 2.796,7.355 4.76,10.741 1.969,3.367 4.142,6.635 6.807,9.479 5.076,5.928 11.682,10.396 18.775,13.75 3.555,1.726 7.31,3.202 11.04,4.327 1.869,0.548 3.761,0.984 5.601,1.177 1.822,0.201 3.659,0.144 4.977,-0.467 1.3,-0.578 2.042,-1.754 2.286,-3.46 0.247,-1.678 -10e-4,-3.594 -0.38,-5.476 -0.817,-3.792 -2.304,-7.55 -3.941,-11.215 -2.781,-6.236 -6.128,-12.254 -9.607,-18.211 -1.905,-0.66 -3.811,-1.435 -5.712,-2.368 m 129.815,-8.345 c -0.204,-3.97 -1.194,-18.09 -5.405,-36.045 -0.69,1.091 -1.406,2.167 -2.187,3.2 -2.323,3.11 -5.185,5.889 -8.629,7.838 -3.43,1.955 -7.482,2.852 -11.448,2.616 -1.982,-0.109 -3.956,-0.422 -5.86,-0.955 -1.918,-0.493 -3.772,-1.184 -5.583,-1.955 -7.233,-3.159 -13.656,-7.731 -19.811,-12.472 -6.15,-4.774 -12.019,-9.852 -17.92,-14.832 -5.9,-4.969 -11.819,-9.91 -18.096,-14.138 -3.132,-2.111 -6.378,-4.003 -9.722,-5.424 -3.335,-1.4 -6.82,-2.252 -10.036,-1.92 -1.609,0.141 -3.121,0.636 -4.518,1.387 -0.359,0.164 -0.7,0.374 -1.028,0.612 -0.328,0.237 -0.684,0.414 -0.987,0.701 l -0.946,0.786 -1.06,0.971 -8.53,7.869 c -1.433,1.315 -2.882,2.631 -4.387,3.932 -0.411,0.354 -0.826,0.708 -1.246,1.061 7.497,-0.249 15.897,-1.062 24.018,-0.69 25.919,1.186 37.091,23.692 38.554,36.89 1.52,13.728 12.049,12.757 12.548,15.379 1.732,0.216 3.493,0.352 5.247,0.417 4.987,0.17 10.056,-0.185 15.026,-1.109 4.963,-0.931 9.877,-2.383 14.375,-4.734 4.447,-2.337 8.61,-5.726 10.685,-10.551 -0.742,2.492 -2.103,4.809 -3.815,6.821 -1.714,2.018 -3.762,3.75 -5.956,5.245 -4.409,2.986 -9.361,5.088 -14.444,6.655 -5.097,1.561 -10.371,2.549 -15.746,2.98 -3.619,0.259 -7.282,0.31 -11.019,-0.125 -10.18,7.244 -32.654,18.068 -55.452,10.555 4.002,5.384 7.719,10.994 10.961,16.938 1.924,3.64 3.696,7.393 4.866,11.502 0.558,2.063 0.975,4.233 0.758,6.612 -0.116,1.18 -0.424,2.438 -1.105,3.602 -0.67,1.166 -1.742,2.15 -2.909,2.745 -2.373,1.194 -4.772,1.235 -6.97,1.121 -2.217,-0.154 -4.317,-0.604 -6.366,-1.137 -4.091,-1.115 -7.974,-2.527 -11.787,-4.244 -1.916,-0.866 -3.829,-1.742 -5.634,-2.844 -0.908,-0.535 -1.848,-1.019 -2.729,-1.6 l -2.617,-1.792 c -0.432,-0.305 -0.881,-0.586 -1.299,-0.911 l -1.233,-1.002 -2.456,-2.016 -2.293,-2.206 c -0.377,-0.373 -0.774,-0.727 -1.134,-1.116 l -1.051,-1.195 c -5.664,-6.344 -9.714,-13.985 -12.279,-21.97 -1.236,-4.016 -2.111,-8.113 -2.746,-12.232 -0.566,-4.129 -0.86,-8.28 -0.879,-12.422 0.019,-4.141 0.193,-8.272 0.658,-12.37 0.487,-4.094 1.146,-8.158 2.012,-12.173 0.893,-4.01 1.965,-7.975 3.29,-11.854 0.136,-0.401 0.288,-0.799 0.429,-1.199 -0.13,-11.251 1.888,-22.077 4.684,-30.889 -3.417,16.885 1.995,22.669 11.487,24.367 0.245,-0.053 0.491,-0.102 0.729,-0.169 1.454,-0.401 2.876,-1.113 4.341,-2.049 2.927,-1.865 5.862,-4.418 8.788,-6.867 l 8.819,-7.534 1.115,-0.946 1.324,-1.02 c 0.424,-0.355 0.939,-0.62 1.411,-0.924 0.473,-0.306 0.966,-0.582 1.494,-0.81 2.041,-0.999 4.317,-1.624 6.57,-1.738 2.253,-0.136 4.457,0.136 6.538,0.636 2.086,0.503 4.024,1.281 5.899,2.125 3.714,1.751 7.093,3.917 10.285,6.247 6.387,4.669 12.165,9.894 17.898,15.105 5.725,5.218 11.364,10.484 17.252,15.425 5.89,4.909 12.018,9.619 18.874,12.926 1.715,0.809 3.47,1.54 5.279,2.079 1.8,0.579 3.657,0.944 5.527,1.119 3.738,0.364 7.575,-0.326 10.939,-2.072 3.372,-1.741 6.287,-4.344 8.699,-7.332 0.869,-1.063 1.669,-2.179 2.442,-3.317 -1.536,-6.498 -3.49,-13.484 -5.985,-20.673 -13.887,-40.012 -37.065,-67.258 -68.901,-81.036 -1.184,1.801 -2.546,3.22 -3.937,4.568 -2.164,2.06 -4.438,3.888 -6.758,5.623 1.828,6.55 4.86,12.368 8.395,17.86 3.917,6.025 8.415,11.659 13.382,16.836 4.967,5.162 10.318,9.992 16.217,13.963 2.95,1.977 6.047,3.72 9.341,4.967 1.642,0.692 3.351,1.067 5.115,1.362 0.878,0.083 1.786,0.207 2.687,0.127 0.934,0.055 1.811,-0.188 2.778,-0.297 -1.569,1.07 -3.449,1.799 -5.416,2.131 -1.958,0.297 -3.991,0.307 -5.962,0.059 -3.967,-0.49 -7.753,-1.819 -11.288,-3.508 -7.066,-3.444 -13.238,-8.339 -18.592,-13.922 -5.353,-5.592 -9.845,-12.027 -13.131,-19.064 -1.615,-3.528 -2.934,-7.214 -3.692,-11.03 -0.556,-2.928 -0.868,-5.925 -0.679,-8.865 -0.47,0.346 -0.939,0.694 -1.412,1.035 -6.214,4.433 -12.657,8.409 -19.161,12.262 -6.51,3.842 -13.098,7.525 -19.717,11.143 l -9.941,5.393 -4.965,2.702 -2.464,1.382 c -0.804,0.484 -1.657,0.911 -2.366,1.529 0.678,-0.659 1.508,-1.132 2.286,-1.66 l 2.389,-1.515 4.814,-2.969 9.631,-5.921 c 6.406,-3.967 12.772,-7.992 19.03,-12.16 6.249,-4.173 12.425,-8.468 18.244,-13.116 0.93,-0.749 1.848,-1.512 2.755,-2.283 0.107,-0.124 1.723,-1.378 1.586,-1.37 1.346,-1.199 2.642,-2.431 3.847,-3.712 1.217,-1.302 2.363,-2.678 3.131,-4.039 0.374,-0.667 0.637,-1.345 0.684,-1.803 0.022,-0.086 0.03,-0.281 0.036,-0.469 0.015,-0.18 0.002,-0.377 0.003,-0.567 -0.009,-0.385 -0.038,-0.782 -0.085,-1.184 -0.401,-3.256 -1.701,-6.647 -3.29,-9.809 -1.606,-3.182 -3.58,-6.209 -5.779,-9.052 -4.413,-5.686 -9.782,-10.619 -15.733,-14.591 -5.959,-3.969 -12.523,-6.956 -19.374,-8.854 -6.852,-1.907 -23.056,-4.779 -30.177,-4.657 v 0 c -13.642,3.963 -38.103,11.047 -41.095,11.756 -0.393,0.093 -2.244,9.431 -2.244,9.431 0.891,0.201 1.665,0.755 2.274,1.286 4.277,3.739 15.804,20.222 15.905,27.084 0.05,3.347 -2.025,6.875 -3.856,9.987 -0.885,1.506 -2.329,3.96 -2.417,4.937 0.095,0.039 0.245,0.089 0.468,0.137 3.628,0.778 6.378,-0.57 8.803,-1.76 1.731,-0.849 3.367,-1.65 5.129,-1.57 3.633,0.166 10.533,6.102 13.594,11.064 l 0.023,-0.015 7.504,13.602 0.491,0.89 -0.602,0.594 c -0.946,0.934 -1.888,1.97 -2.767,3.016 -0.882,1.053 -1.719,2.145 -2.47,3.291 -0.748,1.146 -1.417,2.349 -1.854,3.637 -0.413,1.26 -0.597,2.753 0.253,3.926 -1.027,-1.033 -1.099,-2.685 -0.848,-4.073 0.26,-1.425 0.775,-2.783 1.375,-4.083 0.604,-1.302 1.301,-2.554 2.05,-3.772 0.577,-0.932 1.185,-1.833 1.827,-2.731 l -5.22,-6.866 c -2.403,1.879 -7.012,2.997 -12.335,4.283 -4.389,1.06 -9.362,2.262 -12.858,3.887 -4.931,2.293 -9.296,0.702 -13.917,-0.981 -5.319,-1.937 -11.345,-4.132 -20.099,-0.806 -6.624,2.525 -18.814,-8.585 -22.393,-12.048 l -0.684,-0.662 -0.716,0.53 c -2.482,1.874 -4.965,3.767 -7.283,5.772 -0.573,0.501 -1.141,1.015 -1.639,1.534 -0.182,0.187 -0.35,0.388 -0.471,0.548 l 0.118,0.154 c 0.967,1.296 1.835,2.646 2.569,4.075 0.731,1.425 1.341,2.925 1.684,4.491 0.341,1.557 0.395,3.212 -0.09,4.71 0.291,-1.549 0.03,-3.114 -0.478,-4.55 -0.513,-1.443 -1.267,-2.786 -2.129,-4.047 -0.862,-1.261 -1.851,-2.44 -2.901,-3.53 l -0.397,-0.399 -0.05,-0.049 -0.025,-0.025 c -0.009,-0.007 -0.081,-0.096 -0.113,-0.148 -0.176,-0.264 -0.189,-0.487 -0.195,-0.676 0.014,-0.324 0.092,-0.502 0.146,-0.644 0.245,-0.558 0.491,-0.87 0.744,-1.229 0.506,-0.68 1.031,-1.287 1.565,-1.889 2.14,-2.381 4.387,-4.586 6.646,-6.787 l 3.412,-3.265 1.716,-1.616 0.856,-0.804 0.422,-0.399 0.081,-0.077 c 1.639,-2.726 4.074,-5.103 8.286,-3.59 1.33,0.476 2.682,1.165 3.991,1.83 1.643,0.837 4.396,2.234 5.178,1.861 0.139,-0.066 0.465,-0.486 0.698,-1.598 0.441,-2.095 -0.605,-3.701 -2.38,-6.097 -1.95,-2.629 -4.895,-6.604 -0.615,-11.108 1.962,-2.065 5.136,-5.976 8.496,-10.115 9.839,-12.125 12.32,-14.774 14.32,-15.157 l 0.34,-9.866 c -3.717,-1.101 -9.791,-3.818 -15.567,-6.589 v 0.001 c -12.523,-5.237 -38.077,-3.735 -51.474,0.267 -6.694,1.995 -13.144,5.012 -18.824,9.074 -2.834,2.032 -5.469,4.33 -7.751,6.904 -2.262,2.579 -4.137,5.463 -5.329,8.547 -0.532,1.55 -0.947,3.14 -1.094,4.788 -0.121,1.645 -0.139,3.326 0.134,5.008 0.428,3.376 1.652,6.713 3.132,9.934 0.248,0.524 0.517,1.041 0.78,1.559 l 1.26,2.355 c 2.794,4.973 6.235,9.675 9.809,14.24 9.108,11.466 19.275,22.18 28.793,33.4 -10.109,-10.702 -20.79,-20.808 -30.605,-31.89 -2.746,-3.151 -5.441,-6.382 -7.925,-9.799 0.525,1.275 0.681,2.719 0.73,4.08 0.088,1.743 -0.084,3.455 -0.296,5.161 -0.478,3.396 -1.345,6.701 -2.414,9.926 -2.206,6.421 -5.225,12.552 -9.066,18.203 -3.84,5.625 -8.47,10.91 -14.396,14.821 -2.956,1.919 -6.286,3.486 -9.871,4.06 -3.558,0.587 -7.351,0.007 -10.174,-1.878 3.376,0.414 6.481,-0.195 9.217,-1.466 2.746,-1.257 5.19,-3.078 7.45,-5.138 4.526,-4.133 8.356,-9.164 11.923,-14.376 3.565,-5.229 6.807,-10.741 9.814,-16.397 1.491,-2.835 2.908,-5.716 4.179,-8.664 0.622,-1.474 1.218,-2.971 1.699,-4.495 0.446,-1.438 0.834,-2.895 0.758,-4.453 -1.743,-2.439 -3.375,-4.975 -4.826,-7.66 -0.116,-0.221 -0.228,-0.445 -0.342,-0.668 -41.138,24.073 -59.604,59.469 -67.819,88.354 l 0.167,0.549 0.956,2.272 c 1.385,2.957 3.379,5.676 6.091,7.41 2.692,1.76 5.954,2.422 9.156,2.303 3.218,-0.11 6.399,-0.89 9.471,-1.933 6.16,-2.109 11.932,-5.306 17.508,-8.743 5.572,-3.471 10.939,-7.283 16.247,-11.198 l 7.966,-5.925 c 2.66,-1.972 5.416,-3.96 8.34,-5.729 2.92,-1.773 6.014,-3.365 9.408,-4.502 3.361,-1.12 7.208,-1.796 11.148,-0.884 1.954,0.434 3.828,1.334 5.448,2.487 1.611,1.169 2.968,2.582 4.099,4.067 2.263,2.987 3.763,6.21 5.119,9.315 0.942,2.156 1.801,4.345 2.721,6.282 13.303,-4.03 11.472,-32.881 11.472,-32.881 10.021,39.028 -4.265,80.289 -27.968,95.144 -7.696,4.822 -17.432,5.409 -26.7,3.764 -4.87,4.285 -9.572,8.729 -13.797,13.563 -3.048,3.52 -5.952,7.27 -7.716,11.364 -0.856,2.025 -1.399,4.172 -1.12,6.036 0.253,1.862 1.405,3.314 3.148,4.293 1.73,0.987 3.878,1.51 6.062,1.775 2.194,0.263 4.463,0.302 6.735,0.177 4.552,-0.257 9.118,-1.093 13.592,-2.256 8.956,-2.329 17.646,-5.881 25.663,-10.519 1.985,-1.153 4.044,-2.37 5.795,-3.641 1.787,-1.305 3.447,-2.798 4.972,-4.435 3.059,-3.274 5.549,-7.114 7.634,-11.182 4.192,-8.166 6.621,-17.264 8.3,-26.446 0.831,-4.604 1.373,-9.268 1.781,-13.948 0.411,-4.681 0.608,-9.388 0.616,-14.099 0.039,-4.711 -0.135,-9.43 -0.544,-14.13 -0.202,-2.351 -0.476,-4.697 -0.872,-7.023 -0.407,-2.317 -0.828,-4.669 -1.848,-6.817 1.236,2.043 1.904,4.376 2.548,6.666 0.602,2.311 1.071,4.653 1.475,7.006 0.802,4.708 1.262,9.467 1.566,14.236 0.52,9.54 0.251,19.153 -1.075,28.683 -0.65,4.765 -1.563,9.512 -2.874,14.178 -1.296,4.667 -2.925,9.274 -5.067,13.695 -2.158,4.406 -4.867,8.613 -8.252,12.313 -1.693,1.846 -3.559,3.555 -5.591,5.063 -2.083,1.522 -4.104,2.742 -6.219,3.967 -8.449,4.775 -17.49,8.464 -26.937,10.749 -4.729,1.11 -9.559,1.888 -14.489,2.053 -2.464,0.068 -4.958,0.003 -7.462,-0.397 -2.492,-0.411 -5.041,-1.08 -7.399,-2.536 -1.167,-0.729 -2.28,-1.685 -3.117,-2.908 -0.844,-1.215 -1.356,-2.673 -1.501,-4.098 -0.287,-2.886 0.595,-5.473 1.689,-7.73 2.267,-4.527 5.482,-8.204 8.824,-11.651 4.474,-4.467 9.299,-8.484 14.318,-12.22 -13.05,-2.587 -24.952,-9.474 -28.602,-15.01 -2.926,-0.151 -5.873,-0.303 -8.809,-0.497 -3.932,-0.255 -7.864,-0.562 -11.791,-0.971 -3.925,-0.417 -7.849,-0.91 -11.739,-1.689 -1.942,-0.397 -3.882,-0.853 -5.761,-1.548 -0.934,-0.351 -1.865,-0.76 -2.687,-1.366 -0.405,-0.304 -0.79,-0.676 -1.007,-1.152 -0.224,-0.473 -0.203,-1.024 0.001,-1.467 -0.135,0.474 -0.065,0.98 0.193,1.361 0.253,0.387 0.642,0.665 1.053,0.886 0.832,0.439 1.761,0.692 2.695,0.889 1.876,0.387 3.806,0.544 5.734,0.642 3.861,0.182 7.745,0.082 11.622,-0.093 3.879,-0.182 7.757,-0.465 11.633,-0.799 3.388,-0.289 6.754,-0.63 10.168,-0.97 2.833,-3.749 6.922,-18.478 11.898,-25.459 7.676,-10.767 29.518,-25.805 51.635,-18.89 0.387,0.121 0.75,0.196 1.122,0.289 -0.495,-1.331 -0.954,-2.632 -1.455,-3.908 -1.146,-3.005 -2.376,-5.877 -4.021,-8.251 -1.64,-2.374 -3.69,-4.123 -6.219,-4.812 -2.52,-0.727 -5.493,-0.452 -8.409,0.389 -2.926,0.835 -5.829,2.146 -8.63,3.685 -2.812,1.535 -5.514,3.302 -8.255,5.15 l -8.223,5.565 c -5.515,3.699 -11.115,7.315 -16.933,10.589 -5.826,3.241 -11.856,6.246 -18.328,8.147 -3.227,0.936 -6.579,1.606 -9.991,1.572 -3.389,-0.021 -6.88,-0.892 -9.662,-2.897 -2.804,-1.978 -4.728,-4.901 -6.001,-7.965 l -0.865,-2.345 -0.019,-0.072 c -6.092,21.72 -6.408,39.665 -6.272,46.169 0.412,19.776 55.261,74.993 78.705,98.55 5.58,5.607 23.168,15.808 23.168,15.808 -10.213,-1.5 -25.124,-7.738 -28.187,-10.819 -2.156,-2.17 -4.301,-4.337 -6.436,-6.502 -0.253,15.78 -10.984,39.701 -18.806,55.041 -4.332,8.497 -9.352,17.435 -14.494,25.739 0.422,-0.392 0.843,-0.784 1.266,-1.178 28.317,-26.361 60.413,-56.24 72.388,-62.033 l 1.712,-0.829 1.635,0.971 c 11.147,6.618 22.5,8.173 27.61,3.784 7.281,-6.255 18.296,-0.448 23.588,3.915 0.71,0.55 17.724,13.304 45.395,-1.616 8.908,-4.805 18.813,-0.864 26.77,2.303 3.126,1.244 6.079,2.419 8.252,2.75 3.014,0.458 6.954,-1.528 10.761,-3.45 4.789,-2.416 9.739,-4.913 14.325,-3.1 11.861,4.694 32.467,28.598 54.283,53.906 6.326,7.338 13.196,15.306 19.744,22.58 -14.85,-26.773 -33.954,-69.197 -27.948,-101.792 -8.776,9.479 -17.956,18.9 -27.27,27.745 l 3.057,-12.94 C -26.922,15.513 9.017,-35.698 14.248,-43.283 m -217.672,-127.024 c -0.514,2.444 -1.618,4.087 -3.279,4.882 -0.845,0.404 -1.724,0.547 -2.626,0.505 -2.177,-0.099 -4.48,-1.272 -6.729,-2.418 -1.177,-0.598 -2.394,-1.217 -3.441,-1.594 -1.358,-0.48 -2.001,-0.026 -3.958,4.121 -0.294,0.623 -0.593,1.256 -0.913,1.876 6.137,5.643 13.694,10.682 16.105,9.773 10.398,-3.95 17.601,-1.327 23.39,0.783 4.151,1.513 7.152,2.606 10.314,1.135 3.92,-1.822 9.136,-3.082 13.738,-4.194 3.65,-0.882 9.058,-2.189 10.386,-3.285 -0.121,-0.355 -0.316,-0.746 -0.546,-1.15 l -0.09,-0.118 0.018,-0.012 c -2.136,-3.617 -8.051,-8.701 -9.897,-8.899 -0.554,-0.025 -1.767,0.57 -2.836,1.094 -2.801,1.373 -6.633,3.26 -11.868,2.136 -2.383,-0.51 -3.395,-1.781 -3.825,-2.758 -1.191,-2.712 0.61,-5.775 2.695,-9.321 1.517,-2.578 3.236,-5.5 3.206,-7.525 -0.063,-4.283 -7.904,-16.311 -12.316,-21.549 l -5.292,34.276 0.918,-33.418 c -2.574,2.909 -6.008,7.138 -8.607,10.341 -3.42,4.214 -6.649,8.192 -8.739,10.391 -1.375,1.448 -1.265,2.014 0.985,5.051 1.737,2.344 4.117,5.554 3.207,9.877 m 45.036,-96.01 c -10.417,-6.915 -31.361,-6.968 -43.1,-0.11 -8.671,5.065 -21.817,17.85 -29.402,25.576 6.709,0.2 7.508,3.023 17.024,4.115 9.515,1.091 16.58,-6.09 30.641,-5.668 5.862,0.176 20.587,6.076 39.631,5.12 5.757,-0.289 10.515,-1.598 16.803,-1.937 -6.104,-5.834 -21.949,-20.689 -31.597,-27.096 M -369.396,75.379 c -19.475,54.905 -11.76,79.942 -4.132,86.08 1.593,1.283 4.084,2.445 6.9,0.693 1.656,-1.03 4.631,-3.459 8.512,-6.845 l -0.281,-0.46 c 7.936,-4.84 24.681,-29.282 38.124,-55.645 14.062,-27.58 21.084,-50.106 18.417,-58.645 -17.281,-17.697 -33.341,-34.916 -45.467,-50.018 -0.815,3.409 -1.73,7.804 -2.63,12.132 -3.583,17.226 -8.997,43.258 -19.443,72.708 M 16.687,73.922 c 11.925,45.634 12.14,85.471 0.535,99.131 -3.081,3.626 -6.932,5.334 -11.21,4.935 -9.243,-0.865 -25.725,-19.483 -51.85,-49.79 -19.352,-22.449 -41.285,-47.893 -51.528,-51.946 -1.621,-0.647 -5.295,1.205 -8.531,2.837 -4.579,2.311 -9.77,4.926 -15.015,4.129 -2.974,-0.453 -6.29,-1.773 -9.803,-3.171 -6.934,-2.76 -14.792,-5.888 -20.796,-2.649 -31.945,17.226 -52.282,1.619 -53.18,0.907 -2.562,-2.097 -10.733,-7.346 -14.549,-4.068 -7.299,6.272 -20.53,5.423 -34.085,-2.064 -12.346,7.198 -43.664,36.352 -69.05,59.984 -19.539,18.189 -34.973,32.556 -40.514,36.004 -4.803,2.986 -10.437,2.544 -15.075,-1.188 -11.279,-9.075 -17.55,-39.129 1.899,-93.96 10.285,-28.996 15.64,-54.745 19.183,-71.783 1.867,-8.978 3.017,-14.363 4.148,-17.649 -10.236,-13.613 -16.588,-25.109 -16.754,-33.096 -0.332,-15.936 1.91,-97.546 78.551,-141.829 -0.374,-1.17 -0.692,-2.366 -0.92,-3.599 -0.416,-1.935 -0.523,-3.959 -0.475,-5.98 0.073,-2.03 0.47,-4.05 1.038,-6.007 1.253,-3.864 3.293,-7.342 5.712,-10.424 2.441,-3.071 5.248,-5.788 8.265,-8.208 6.049,-4.831 12.926,-8.506 20.197,-11.107 5.13,-1.842 10.491,-3.078 15.949,-3.713 4.387,-4.665 23.809,-24.968 36.113,-32.156 7.713,-4.506 18.21,-6.518 28.237,-6.059 8.427,0.386 16.524,2.519 22.348,6.385 12.634,8.39 34.229,29.46 35.142,30.353 0,0 5.573,2.789 8.237,3.677 7.562,2.511 14.71,6.219 21.07,10.935 6.355,4.723 11.948,10.417 16.463,16.878 2.251,3.235 4.247,6.655 5.858,10.29 1.579,3.629 2.889,7.422 3.22,11.665 33.911,14.278 59.488,43.946 74,85.893 11.002,31.8 11.825,59.029 11.854,60.173 l 0.03,1.132 -0.634,0.939 c -0.14,0.207 -6.442,8.971 -16.831,22.328 3.27,3.61 3.219,9.434 3.139,18.014 -0.123,13.395 -0.33,35.814 9.612,73.857"
             style="fill:#000000;fill-opacity:1;fill-rule:nonzero;stroke:none"
             id="path843" />
        </g>
        <g
           id="g845"
           transform="translate(218.2054,167.8679)">
          <path
             d="m 0,0 c -1.336,-0.061 -2.37,-1.194 -2.309,-2.53 0.062,-1.336 1.194,-2.369 2.53,-2.308 1.336,0.061 2.37,1.194 2.309,2.53 C 2.469,-0.972 1.336,0.061 0,0"
             style="fill:#231f20;fill-opacity:1;fill-rule:nonzero;stroke:none"
             id="path847" />
        </g>
        <g
           id="g849"
           transform="translate(206.2535,168.3004)">
          <path
             d="M 0,0 C -0.086,1.883 -1.683,3.34 -3.566,3.254 -5.449,3.168 -6.906,1.571 -6.82,-0.312 -6.734,-2.195 -5.137,-3.652 -3.254,-3.566 -1.371,-3.48 0.086,-1.883 0,0"
             style="fill:#231f20;fill-opacity:1;fill-rule:nonzero;stroke:none"
             id="path851" />
        </g>
        <g
           id="g853"
           transform="translate(226.2599,145.7573)">
          <path
             d="M 0,0 C 0.352,1.821 -1.302,3.33 -3.083,2.813 -3.92,2.571 -4.583,1.845 -4.748,0.989 -5.1,-0.832 -3.446,-2.341 -1.665,-1.825 -0.828,-1.582 -0.165,-0.856 0,0"
             style="fill:#231f20;fill-opacity:1;fill-rule:nonzero;stroke:none"
             id="path855" />
        </g>
        <g
           id="g857"
           transform="translate(212.9395,151.6521)">
          <path
             d="M 0,0 C 1.808,2.614 -1.178,5.339 -3.616,3.299 -5.425,0.685 -2.438,-2.04 0,0"
             style="fill:#231f20;fill-opacity:1;fill-rule:nonzero;stroke:none"
             id="path859" />
        </g>
        <g
           id="g861"
           transform="translate(203.663,142.9891)">
          <path
             d="M 0,0 C -0.086,1.886 -1.685,3.345 -3.572,3.259 -5.458,3.173 -6.917,1.574 -6.831,-0.313 -6.744,-2.199 -5.145,-3.658 -3.259,-3.572 -1.373,-3.485 0.086,-1.886 0,0"
             style="fill:#231f20;fill-opacity:1;fill-rule:nonzero;stroke:none"
             id="path863" />
        </g>
        <g
           id="g865"
           transform="translate(235.6543,134.7506)">
          <path
             d="M 0,0 C 1.336,0.061 2.37,1.194 2.308,2.53 2.247,3.866 1.115,4.899 -0.221,4.838 -1.558,4.777 -2.591,3.644 -2.53,2.308 -2.469,0.972 -1.336,-0.061 0,0"
             style="fill:#231f20;fill-opacity:1;fill-rule:nonzero;stroke:none"
             id="path867" />
        </g>
        <g
           id="g869"
           transform="translate(214.4345,137.277)">
          <path
             d="m 0,0 c -1.397,-0.064 -2.477,-1.248 -2.413,-2.645 0.064,-1.396 1.248,-2.477 2.645,-2.413 1.396,0.064 2.477,1.248 2.413,2.645 C 2.581,-1.016 1.397,0.064 0,0"
             style="fill:#231f20;fill-opacity:1;fill-rule:nonzero;stroke:none"
             id="path871" />
        </g>
        <g
           id="g873"
           transform="translate(250.6707,118.0474)">
          <path
             d="M 0,0 C 1.53,0.07 2.713,1.367 2.643,2.896 2.573,4.426 1.276,5.609 -0.254,5.539 -1.783,5.469 -2.967,4.173 -2.896,2.643 -2.827,1.113 -1.53,-0.07 0,0"
             style="fill:#231f20;fill-opacity:1;fill-rule:nonzero;stroke:none"
             id="path875" />
        </g>
        <g
           id="g877"
           transform="translate(236.5911,119.1715)">
          <path
             d="M 0,0 C 0.089,-1.952 1.744,-3.461 3.695,-3.372 5.647,-3.283 7.156,-1.628 7.067,0.323 6.978,2.275 5.324,3.785 3.372,3.695 1.42,3.606 -0.089,1.952 0,0"
             style="fill:#231f20;fill-opacity:1;fill-rule:nonzero;stroke:none"
             id="path879" />
        </g>
        <g
           id="g881"
           transform="translate(334.8756,169.8262)">
          <path
             d="M 0,0 C 1.608,-0.311 2.94,1.149 2.484,2.722 2.269,3.461 1.628,4.045 0.873,4.191 -0.734,4.501 -2.066,3.042 -1.61,1.47 -1.396,0.731 -0.755,0.146 0,0"
             style="fill:#231f20;fill-opacity:1;fill-rule:nonzero;stroke:none"
             id="path883" />
        </g>
        <g
           id="g885"
           transform="translate(347.6263,168.7672)">
          <path
             d="M 0,0 C 1.77,0.081 3.139,1.581 3.058,3.351 2.977,5.121 1.477,6.49 -0.293,6.409 -2.063,6.328 -3.432,4.827 -3.351,3.058 -3.27,1.288 -1.77,-0.081 0,0"
             style="fill:#231f20;fill-opacity:1;fill-rule:nonzero;stroke:none"
             id="path887" />
        </g>
        <g
           id="g889"
           transform="translate(323.3132,155.8113)">
          <path
             d="M 0,0 C 1.607,-0.31 2.939,1.149 2.483,2.721 2.269,3.46 1.628,4.045 0.873,4.191 -0.735,4.502 -2.067,3.042 -1.611,1.469 -1.396,0.73 -0.755,0.146 0,0"
             style="fill:#231f20;fill-opacity:1;fill-rule:nonzero;stroke:none"
             id="path891" />
        </g>
        <g
           id="g893"
           transform="translate(336.5292,153.1616)">
          <path
             d="M 0,0 C 1.77,0.081 3.139,1.581 3.058,3.351 2.977,5.121 1.476,6.489 -0.293,6.408 -2.063,6.327 -3.432,4.827 -3.351,3.058 -3.27,1.288 -1.77,-0.081 0,0"
             style="fill:#231f20;fill-opacity:1;fill-rule:nonzero;stroke:none"
             id="path895" />
        </g>
        <g
           id="g897"
           transform="translate(354.5925,149.9478)">
          <path
             d="M 0,0 C 1.952,0.089 3.461,1.744 3.372,3.695 3.283,5.647 1.628,7.157 -0.323,7.067 -2.275,6.978 -3.785,5.323 -3.695,3.372 -3.606,1.42 -1.952,-0.089 0,0"
             style="fill:#231f20;fill-opacity:1;fill-rule:nonzero;stroke:none"
             id="path899" />
        </g>
        <g
           id="g901"
           transform="translate(362.8026,151.4319)">
          <path
             d="M 0,0 C 0.081,-1.774 1.585,-3.147 3.36,-3.066 5.134,-2.984 6.506,-1.48 6.425,0.294 6.344,2.068 4.84,3.441 3.066,3.36 1.291,3.278 -0.081,1.774 0,0"
             style="fill:#231f20;fill-opacity:1;fill-rule:nonzero;stroke:none"
             id="path903" />
        </g>
        <g
           id="g905"
           transform="translate(318.5016,139.0765)">
          <path
             d="M 0,0 C 1.179,0.054 2.092,1.054 2.038,2.233 1.984,3.412 0.984,4.324 -0.195,4.27 -1.375,4.216 -2.287,3.217 -2.233,2.037 -2.179,0.858 -1.179,-0.054 0,0"
             style="fill:#231f20;fill-opacity:1;fill-rule:nonzero;stroke:none"
             id="path907" />
        </g>
        <g
           id="g909"
           transform="translate(332.1284,134.8172)">
          <path
             d="M 0,0 C 1.77,0.081 3.139,1.581 3.058,3.351 2.977,5.121 1.476,6.49 -0.293,6.409 -2.063,6.328 -3.432,4.827 -3.351,3.058 -3.27,1.288 -1.77,-0.081 0,0"
             style="fill:#231f20;fill-opacity:1;fill-rule:nonzero;stroke:none"
             id="path911" />
        </g>
        <g
           id="g913"
           transform="translate(351.8837,144.8042)">
          <path
             d="m 0,0 c -2.915,1.983 -5.936,-1.327 -3.696,-4.049 0.014,-0.017 0.032,-0.033 0.05,-0.046 2.915,-1.981 5.935,1.329 3.694,4.051 C 0.035,-0.028 0.017,-0.012 0,0"
             style="fill:#231f20;fill-opacity:1;fill-rule:nonzero;stroke:none"
             id="path915" />
        </g>
        <g
           id="g917"
           transform="translate(357.7072,132.1521)">
          <path
             d="m 0,0 c -1.184,-0.054 -2.1,-1.058 -2.046,-2.243 0.054,-1.184 1.058,-2.1 2.242,-2.046 1.185,0.054 2.101,1.058 2.046,2.243 C 2.188,-0.862 1.184,0.054 0,0"
             style="fill:#231f20;fill-opacity:1;fill-rule:nonzero;stroke:none"
             id="path919" />
        </g>
        <g
           id="g921"
           transform="translate(321.4649,125.043)">
          <path
             d="m 0,0 c -1.77,-0.081 -3.139,-1.581 -3.058,-3.351 0.081,-1.77 1.582,-3.139 3.351,-3.058 1.77,0.081 3.139,1.582 3.058,3.351 C 3.27,-1.288 1.77,0.081 0,0"
             style="fill:#231f20;fill-opacity:1;fill-rule:nonzero;stroke:none"
             id="path923" />
        </g>
        <g
           id="g925"
           transform="translate(333.7024,121.3122)">
          <path
             d="m 0,0 c -1.774,-0.081 -3.147,-1.585 -3.066,-3.36 0.082,-1.774 1.586,-3.147 3.36,-3.065 1.774,0.081 3.147,1.585 3.066,3.359 C 3.279,-1.291 1.774,0.081 0,0"
             style="fill:#231f20;fill-opacity:1;fill-rule:nonzero;stroke:none"
             id="path927" />
        </g>
        <g
           id="g929"
           transform="translate(370.8176,295.2718)">
          <path
             d="m 0,0 c 5.206,0.238 9.619,-3.789 9.857,-8.994 0.238,-5.206 -3.788,-9.619 -8.994,-9.858 -5.206,-0.238 -9.619,3.789 -9.857,8.995 C -9.233,-4.651 -5.206,-0.238 0,0 M -7.511,-33.904 C 3.71,-33.391 12.391,-23.878 11.877,-12.656 11.364,-1.434 1.851,7.246 -9.371,6.733 -20.592,6.219 -29.273,-3.294 -28.759,-14.516 c 0.513,-11.221 10.026,-19.902 21.248,-19.388"
             style="fill:#000000;fill-opacity:1;fill-rule:nonzero;stroke:none"
             id="path931" />
        </g>
        <g
           id="g933"
           transform="translate(193.1194,290.3046)">
          <path
             d="M 0,0 C -7.223,-10.44 4.703,-21.324 14.441,-13.178 21.664,-2.737 9.737,8.146 0,0"
             style="fill:#ffffff;fill-opacity:1;fill-rule:nonzero;stroke:none"
             id="path935" />
        </g>
        <g
           id="g937"
           transform="translate(364.6605,278.6249)">
          <path
             d="M 0,0 C 10.441,-7.222 21.323,4.704 13.177,14.442 2.737,21.665 -8.147,9.737 0,0"
             style="fill:#ffffff;fill-opacity:1;fill-rule:nonzero;stroke:none"
             id="path939" />
        </g>
        <g
           id="g941"
           transform="translate(191.9617,150.9409)">
          <path
             d="m 0,0 c -12.866,-3.333 -25.738,-6.817 -38.563,-10.392 -12.829,-3.581 -25.628,-7.272 -38.374,-11.134 -12.742,-3.872 -25.441,-7.894 -37.992,-12.333 -6.272,-2.228 -12.51,-4.556 -18.627,-7.17 -3.054,-1.316 -6.088,-2.686 -9.014,-4.262 -1.465,-0.783 -2.895,-1.631 -4.26,-2.576 -1.332,-0.96 -2.708,-2.007 -3.432,-3.527 0.656,1.555 2.003,2.681 3.301,3.705 1.332,1.013 2.735,1.93 4.173,2.783 2.873,1.715 5.858,3.226 8.865,4.682 6.025,2.896 12.178,5.507 18.366,8.019 12.384,5.006 24.928,9.598 37.518,14.041 12.595,4.434 25.248,8.697 37.936,12.852 12.694,4.15 25.401,8.202 38.192,12.126 C -0.042,7.387 1.938,6.337 2.511,4.468 3.085,2.6 2.035,0.62 0.166,0.046 0.12,0.033 0.074,0.019 0.028,0.007 Z"
             style="fill:#000000;fill-opacity:1;fill-rule:nonzero;stroke:none"
             id="path943" />
        </g>
        <g
           id="g945"
           transform="translate(192.5531,160.232)">
          <path
             d="m 0,0 c -13.11,0.194 -26.332,0.031 -39.498,-0.357 -13.178,-0.397 -26.351,-1.07 -39.495,-2.122 -13.141,-1.06 -26.26,-2.487 -39.267,-4.656 -6.498,-1.102 -12.97,-2.381 -19.366,-3.993 -6.391,-1.614 -12.71,-3.586 -18.755,-6.271 5.919,2.952 12.176,5.217 18.518,7.123 6.348,1.905 12.792,3.48 19.271,4.879 12.969,2.762 26.086,4.784 39.237,6.438 13.156,1.646 26.356,2.912 39.577,3.902 13.234,0.981 26.439,1.737 39.765,2.134 C 1.941,7.135 3.572,5.598 3.63,3.644 3.689,1.69 2.152,0.059 0.198,0.001 0.149,-0.001 0.101,-0.001 0.053,-0.001 Z"
             style="fill:#000000;fill-opacity:1;fill-rule:nonzero;stroke:none"
             id="path947" />
        </g>
        <g
           id="g949"
           transform="translate(189.5799,136.3384)">
          <path
             d="m 0,0 c -10.952,-5.92 -21.88,-11.963 -32.754,-18.069 -10.875,-6.111 -21.705,-12.304 -32.459,-18.623 -10.75,-6.326 -21.438,-12.76 -31.931,-19.497 -5.239,-3.378 -10.438,-6.821 -15.494,-10.464 -2.524,-1.826 -5.013,-3.702 -7.399,-5.702 -1.195,-0.998 -2.36,-2.032 -3.452,-3.14 -1.077,-1.112 -2.156,-2.273 -2.798,-3.704 0.574,1.462 1.608,2.688 2.637,3.856 1.046,1.166 2.168,2.261 3.32,3.32 2.303,2.122 4.712,4.124 7.157,6.075 4.899,3.894 9.947,7.591 15.037,11.224 10.195,7.248 20.594,14.197 31.059,21.039 10.468,6.836 21.017,13.548 31.615,20.181 10.604,6.63 21.236,13.185 31.963,19.655 C -1.825,7.161 0.35,6.622 1.36,4.949 2.369,3.275 1.831,1.099 0.157,0.09 0.113,0.063 0.068,0.037 0.023,0.013 Z"
             style="fill:#000000;fill-opacity:1;fill-rule:nonzero;stroke:none"
             id="path951" />
        </g>
        <g
           id="g953"
           transform="translate(205.0504,124.9626)">
          <path
             d="m 0,0 c -9.472,-7.208 -18.91,-14.513 -28.296,-21.861 -9.386,-7.353 -18.726,-14.767 -27.989,-22.274 -9.259,-7.511 -18.455,-15.102 -27.458,-22.912 -4.499,-3.909 -8.95,-7.873 -13.27,-11.974 -2.157,-2.054 -4.28,-4.144 -6.314,-6.318 -1.011,-1.091 -2.011,-2.195 -2.938,-3.359 -0.919,-1.165 -1.829,-2.36 -2.423,-3.733 0.526,1.402 1.382,2.652 2.247,3.867 0.874,1.216 1.822,2.373 2.783,3.519 1.933,2.282 3.959,4.484 6.019,6.649 4.128,4.326 8.391,8.518 12.703,12.655 8.631,8.269 17.46,16.323 26.356,24.299 8.899,7.973 17.879,15.853 26.909,23.677 9.035,7.823 18.102,15.587 27.257,23.296 1.495,1.26 3.728,1.068 4.987,-0.427 C 1.833,3.609 1.641,1.376 0.146,0.116 0.104,0.081 0.062,0.047 0.019,0.015 Z"
             style="fill:#000000;fill-opacity:1;fill-rule:nonzero;stroke:none"
             id="path955" />
        </g>
        <g
           id="g957"
           transform="translate(230.5685,128.8767)">
          <path
             d="m 0,0 c -16.871,-17.336 -33.618,-34.839 -50.123,-52.544 -8.245,-8.862 -16.439,-17.771 -24.464,-26.83 -4.008,-4.532 -7.983,-9.095 -11.843,-13.751 -1.922,-2.335 -3.834,-4.68 -5.652,-7.095 -0.925,-1.197 -1.799,-2.428 -2.657,-3.673 -0.841,-1.256 -1.639,-2.539 -2.263,-3.922 0.556,1.41 1.294,2.741 2.077,4.041 0.798,1.289 1.616,2.568 2.484,3.812 1.705,2.51 3.505,4.951 5.316,7.384 3.639,4.852 7.395,9.613 11.185,14.345 7.59,9.457 15.354,18.77 23.17,28.037 15.652,18.521 31.533,36.825 47.589,55.017 1.294,1.466 3.531,1.605 4.996,0.312 C 1.281,3.839 1.421,1.602 0.127,0.137 0.092,0.097 0.056,0.057 0.019,0.019 Z"
             style="fill:#000000;fill-opacity:1;fill-rule:nonzero;stroke:none"
             id="path959" />
        </g>
        <g
           id="g961"
           transform="translate(230.8264,112.5317)">
          <path
             d="m 0,0 c -6.782,-11.78 -13.498,-23.622 -20.113,-35.509 -3.297,-5.949 -6.588,-11.904 -9.792,-17.903 -3.18,-6.011 -6.408,-12 -9.147,-18.232 2.192,6.452 4.9,12.722 7.552,18.998 2.68,6.268 5.447,12.496 8.223,18.721 5.573,12.441 11.242,24.826 17.001,37.195 0.825,1.773 2.932,2.541 4.706,1.716 C 0.203,4.16 0.971,2.053 0.146,0.28 0.103,0.188 0.057,0.099 0.008,0.013 Z"
             style="fill:#000000;fill-opacity:1;fill-rule:nonzero;stroke:none"
             id="path963" />
        </g>
        <g
           id="g965"
           transform="translate(367.9288,164.054)">
          <path
             d="m 0,0 c 13.096,-2.74 26.12,-5.613 39.14,-8.587 13.015,-2.979 26.004,-6.068 38.951,-9.333 12.944,-3.274 25.854,-6.701 38.645,-10.556 6.391,-1.936 12.757,-3.973 19.021,-6.307 3.127,-1.176 6.238,-2.408 9.256,-3.853 1.51,-0.718 2.991,-1.503 4.41,-2.39 1.386,-0.901 2.829,-1.9 3.625,-3.388 -0.86,1.448 -2.326,2.364 -3.74,3.199 -1.445,0.816 -2.947,1.53 -4.477,2.176 -3.058,1.302 -6.205,2.389 -9.366,3.421 -6.33,2.044 -12.755,3.792 -19.204,5.438 -12.904,3.274 -25.917,6.119 -38.96,8.811 -13.045,2.682 -26.128,5.189 -39.23,7.583 -13.099,2.388 -26.234,4.682 -39.351,6.826 l -0.016,0.002 c -1.929,0.316 -3.237,2.135 -2.922,4.064 0.315,1.93 2.135,3.238 4.064,2.923 C -0.107,0.021 -0.047,0.01 0,0"
             style="fill:#000000;fill-opacity:1;fill-rule:nonzero;stroke:none"
             id="path967" />
        </g>
        <g
           id="g969"
           transform="translate(357.5991,171.961)">
          <path
             d="m 0,0 c 13.99,1.093 27.905,1.818 41.87,2.321 13.955,0.478 27.919,0.715 41.882,0.523 6.98,-0.084 13.961,-0.273 20.935,-0.615 6.973,-0.328 13.943,-0.787 20.891,-1.485 6.947,-0.693 13.881,-1.561 20.749,-2.822 6.855,-1.29 13.679,-2.911 20.182,-5.424 -6.602,2.235 -13.454,3.557 -20.324,4.551 -6.881,0.964 -13.81,1.535 -20.742,1.931 -6.934,0.401 -13.881,0.564 -20.827,0.596 C 97.671,-0.377 90.724,-0.483 83.78,-0.694 69.893,-1.091 56.018,-1.916 42.168,-2.978 28.329,-4.063 14.462,-5.379 0.738,-7.038 L 0.701,-7.043 c -1.941,-0.234 -3.705,1.149 -3.939,3.089 -0.235,1.941 1.148,3.705 3.089,3.939 C -0.104,-0.009 -0.045,-0.004 0,0"
             style="fill:#000000;fill-opacity:1;fill-rule:nonzero;stroke:none"
             id="path971" />
        </g>
        <g
           id="g973"
           transform="translate(373.7268,151.0267)">
          <path
             d="m 0,0 c 11.402,-5.383 22.718,-10.861 34.014,-16.418 11.289,-5.559 22.537,-11.204 33.718,-16.981 11.177,-5.784 22.298,-11.683 33.246,-17.901 5.467,-3.12 10.899,-6.308 16.2,-9.71 2.647,-1.705 5.262,-3.465 7.783,-5.358 1.261,-0.944 2.494,-1.928 3.66,-2.991 1.147,-1.067 2.306,-2.192 3.018,-3.603 -0.777,1.374 -1.975,2.43 -3.164,3.436 -1.205,1 -2.475,1.92 -3.772,2.799 -2.592,1.762 -5.274,3.389 -7.986,4.962 -5.432,3.136 -10.989,6.056 -16.578,8.907 -11.192,5.68 -22.549,11.038 -33.958,16.278 -11.412,5.235 -22.887,10.334 -34.4,15.347 -11.51,5.007 -23.069,9.946 -34.639,14.759 l -0.012,0.005 c -1.805,0.751 -2.66,2.823 -1.909,4.628 0.751,1.805 2.822,2.659 4.627,1.908 C -0.104,0.048 -0.046,0.021 0,0"
             style="fill:#000000;fill-opacity:1;fill-rule:nonzero;stroke:none"
             id="path975" />
        </g>
        <g
           id="g977"
           transform="translate(365.4152,140.1639)">
          <path
             d="m 0,0 c 9.657,-6.857 19.229,-13.778 28.777,-20.755 9.541,-6.981 19.039,-14.022 28.466,-21.158 9.42,-7.145 18.787,-14.363 27.97,-21.818 4.586,-3.732 9.137,-7.512 13.56,-11.441 2.201,-1.977 4.392,-3.967 6.474,-6.071 0.518,-0.53 1.048,-1.045 1.554,-1.585 l 1.485,-1.651 c 0.5,-0.545 0.92,-1.162 1.382,-1.738 0.241,-0.281 0.434,-0.598 0.612,-0.924 l 0.556,-0.958 -0.603,0.929 c -0.192,0.314 -0.398,0.617 -0.653,0.887 -0.49,0.551 -0.933,1.138 -1.458,1.656 l -1.557,1.566 c -0.529,0.511 -1.083,0.998 -1.624,1.498 -2.173,1.987 -4.452,3.86 -6.74,5.715 -4.596,3.691 -9.316,7.228 -14.069,10.717 -9.516,6.967 -19.211,13.694 -28.955,20.345 -9.75,6.643 -19.568,13.187 -29.425,19.67 -9.859,6.476 -19.764,12.908 -29.695,19.239 l -0.009,0.006 c -1.649,1.051 -2.133,3.239 -1.082,4.888 1.051,1.648 3.239,2.133 4.887,1.082 C -0.1,0.069 -0.045,0.031 0,0"
             style="fill:#000000;fill-opacity:1;fill-rule:nonzero;stroke:none"
             id="path979" />
        </g>
        <g
           id="g981"
           transform="translate(343.482,135.6247)">
          <path
             d="m 0,0 c 17.651,-16.649 35.137,-33.426 52.416,-50.44 8.63,-8.515 17.212,-17.079 25.633,-25.804 4.207,-4.366 8.382,-8.764 12.45,-13.263 2.025,-2.257 4.04,-4.524 5.967,-6.868 0.978,-1.159 1.909,-2.358 2.823,-3.569 0.897,-1.222 1.754,-2.481 2.437,-3.835 -0.749,1.321 -1.66,2.526 -2.612,3.7 -0.968,1.161 -1.951,2.307 -2.982,3.415 -2.031,2.238 -4.149,4.399 -6.276,6.548 -4.27,4.285 -8.644,8.465 -13.05,12.613 -8.818,8.287 -17.792,16.411 -26.812,24.483 -18.053,16.124 -36.329,32.024 -54.713,47.746 l -0.01,0.009 c -1.486,1.271 -1.66,3.505 -0.39,4.991 1.271,1.485 3.505,1.66 4.991,0.389 C -0.088,0.08 -0.039,0.036 0,0"
             style="fill:#000000;fill-opacity:1;fill-rule:nonzero;stroke:none"
             id="path983" />
        </g>
        <g
           id="g985"
           transform="translate(337.406,119.1246)">
          <path
             d="m 0,0 c 6.864,-11.791 13.641,-23.607 20.327,-35.487 3.333,-5.945 6.657,-11.894 9.898,-17.891 3.215,-6.007 6.484,-12.004 9.256,-18.229 -3.297,5.956 -7.058,11.625 -10.774,17.32 -3.739,5.681 -7.559,11.311 -11.386,16.935 C 9.648,-26.12 1.878,-14.94 -5.951,-3.829 l -0.005,0.007 C -7.083,-2.223 -6.7,-0.014 -5.101,1.113 -3.502,2.24 -1.292,1.857 -0.166,0.258 -0.108,0.176 -0.05,0.085 0,0"
             style="fill:#000000;fill-opacity:1;fill-rule:nonzero;stroke:none"
             id="path987" />
        </g>
      </g>
    </g>
  </g>
</svg>
